<?xml version="1.0" encoding="UTF-8" standalone="no"?>
<svg
   xmlns:dc="http://purl.org/dc/elements/1.1/"
   xmlns:cc="http://creativecommons.org/ns#"
   xmlns:rdf="http://www.w3.org/1999/02/22-rdf-syntax-ns#"
   xmlns:svg="http://www.w3.org/2000/svg"
   xmlns="http://www.w3.org/2000/svg"
   xmlns:sodipodi="http://sodipodi.sourceforge.net/DTD/sodipodi-0.dtd"
   xmlns:inkscape="http://www.inkscape.org/namespaces/inkscape"
   version="1.1"
   width="131.71837"
   height="49.999924"
   viewBox="0 0 131.71837 49.999925"
   id="svg895"
   sodipodi:docname="cat-top-2-a.svg"
   inkscape:version="1.0 (4035a4f, 2020-05-01)">
  <metadata
     id="metadata901">
    <rdf:RDF>
      <cc:Work
         rdf:about="">
        <dc:format>image/svg+xml</dc:format>
        <dc:type
           rdf:resource="http://purl.org/dc/dcmitype/StillImage" />
        <dc:title></dc:title>
      </cc:Work>
    </rdf:RDF>
  </metadata>
  <defs
     id="defs899" />
  <sodipodi:namedview
     fit-margin-bottom="0"
     fit-margin-right="0"
     fit-margin-left="0"
     fit-margin-top="0"
     inkscape:document-rotation="0"
     pagecolor="#ffffff"
     bordercolor="#666666"
     borderopacity="1"
     objecttolerance="10"
     gridtolerance="10"
     guidetolerance="10"
     inkscape:pageopacity="0"
     inkscape:pageshadow="2"
     inkscape:window-width="1730"
     inkscape:window-height="909"
     id="namedview897"
     showgrid="false"
     inkscape:zoom="4.1340901"
     inkscape:cx="71.579569"
     inkscape:cy="50.556923"
     inkscape:window-x="0"
     inkscape:window-y="25"
     inkscape:window-maximized="0"
     inkscape:current-layer="g891" />
  <g
     transform="translate(-167.40244,-152.39549)"
     id="g893">
    <g
       data-paper-data="{&quot;isPaintingLayer&quot;:true}"
       stroke-linecap="round"
       stroke-linejoin="round"
       stroke-miterlimit="1.5"
       stroke-dasharray="none"
       stroke-dashoffset="0"
       style="mix-blend-mode:normal"
       id="g891">
      <path
         d="m 240.55387,197.27305 c -2.18151,-0.55337 -2.13923,0.42792 -3.6105,1.2197 -2.40982,1.29213 -5.68208,1.608 -8.34559,1.3174 -5.99492,-0.65702 -10.45943,-2.64238 -12.54796,-8.22361 -3.06172,-8.19579 7.48314,-17.83954 15.46512,-14.93773 8.13418,2.95402 2.99324,5.62586 17.43523,12.41835 2.78186,1.30732 8.92053,3.49566 10.4087,6.97612 0.97239,2.26416 -0.76099,5.24518 -3.5513,4.95371 -2.12233,-0.22069 -2.88333,-0.33694 -4.95491,-0.8558 -3.45832,-0.86674 -6.84051,-1.99208 -10.29879,-2.86812 z"
         fill="#faa51d"
         fill-rule="evenodd"
         stroke="#c48800"
         stroke-width="2.45913"
         id="path833" />
      <path
         d="m 244.66183,154.82932 c 2.07157,-0.51889 2.83258,-0.63511 4.95492,-0.85582 2.7903,-0.29143 4.52368,2.68955 3.55129,4.95372 -1.48818,3.48046 -7.62686,5.66885 -10.4087,6.97612 -14.44197,6.79249 -9.30106,9.46433 -17.43523,12.41836 -7.98199,2.90182 -18.52682,-6.74193 -15.46508,-14.93773 2.08848,-5.58124 6.553,-7.5666 12.54797,-8.22362 2.66345,-0.2906 5.93574,0.0251 8.34553,1.3174 1.47125,0.7918 1.42898,1.77308 3.61052,1.21967 3.45827,-0.87599 6.84048,-2.00137 10.29879,-2.86809 z"
         fill="#faa51d"
         fill-rule="evenodd"
         stroke="#c48800"
         stroke-width="2.45913"
         id="path835" />
      <path
         d="m 262.72581,183.84987 c 0.92165,0.74881 2.44365,2.79314 3.47523,3.36674 1.2345,0.67978 5.55526,0.84991 6.83202,1.10513 5.20857,1.03777 7.31398,1.81439 11.9476,4.40201 2.51973,1.40752 4.67589,4.06673 2.7142,6.60044 -0.54959,0.70332 -1.52197,1.81266 -3.97406,0.9122 -3.8726,-1.42689 -5.25084,-2.80575 -9.26722,-3.89404 -3.3991,-0.92066 -7.16179,1.50776 -10.30723,1.99882 -5.28469,0.82297 -10.73004,-2.16558 -13.67251,-6.42354 -1.84332,-2.66847 -1.33599,-6.9222 1.14992,-9.03728 4.09245,-3.4948 7.66914,-1.82951 11.10205,0.96951 z"
         fill="#faa51d"
         fill-rule="evenodd"
         stroke="#c48800"
         stroke-width="2.45913"
         id="path837" />
      <path
         d="m 257.81459,171.37995 c -2.48591,-2.11508 -2.99324,-6.3688 -1.14996,-9.0373 2.94253,-4.25792 8.38788,-7.24649 13.67255,-6.42355 3.14545,0.49109 6.90812,2.91949 10.30721,1.99885 4.01637,-1.08829 5.39464,-2.46716 9.26724,-3.89404 2.45211,-0.90045 3.42449,0.2089 3.97409,0.91222 1.96166,2.5337 -0.19449,5.19293 -2.71421,6.60045 -4.6336,2.5876 -6.73903,3.36423 -11.94761,4.40196 -1.27677,0.25522 -5.59752,0.42539 -6.83203,1.10514 -1.03159,0.5736 -2.55357,2.61792 -3.4752,3.36675 -3.43293,2.79905 -7.00962,4.46431 -11.10208,0.96952 z"
         fill="#faa51d"
         fill-rule="evenodd"
         stroke="#c48800"
         stroke-width="2.45913"
         id="path839" />
      <path
         d="m 270.95478,169.87237 c 1.91939,4.15432 1.4882,9.47444 0.40586,12.22544 -1.73336,4.38938 -9.41097,7.27516 -13.52032,9.19145 -4.27004,1.99546 -10.18886,5.8053 -17.08851,5.41699 -8.15113,-0.45823 -14.56883,-3.53187 -18.54292,-6.45388 -4.08402,-3.00795 -9.67309,-4.19983 -9.69847,-12.83195 -0.008,-7.43939 4.86193,-9.33546 9.14884,-12.10754 5.38617,-3.48807 9.95214,-6.1363 17.39296,-6.44631 8.47241,-0.35208 15.35518,2.96751 20.39468,4.73218 3.33143,1.16659 9.68148,2.3307 11.50787,6.27363 z"
         fill="#faa51d"
         fill-rule="evenodd"
         stroke="#c48800"
         stroke-width="2.50587"
         id="path841" />
      <g
         style="stroke-width:1.10793"
         transform="matrix(0.90430677,0,0,0.9008562,16.136991,15.23707)"
         data-paper-data="{&quot;index&quot;:null}"
         fill-rule="evenodd"
         id="g847">
        <path
           d="m 221.75393,187.02883 c -1.20618,-1.00421 -2.05706,-0.26274 -4.33852,0.48528 -2.80507,0.9182 -6.30113,2.86586 -10.00009,4.25811 -4.09915,1.54279 -8.0917,2.44602 -12.016,2.57038 -3.67184,0.11688 -12.56393,-1.10333 -18.75286,-4.47129 -1.40347,-0.76392 -4.50495,-2.61433 -6.07673,-4.25156 -1.85883,-1.93457 -1.98131,-2.88642 -1.92802,-3.93552 0.0795,-1.57458 0.85462,-3.25108 2.22723,-4.17488 1.71764,-1.15662 4.70129,-0.29641 7.84859,1.86537 2.68446,1.84293 5.96734,4.07016 10.52558,4.76115 9.05571,1.37261 15.37835,-2.30858 18.05252,-3.54001 3.51663,-1.6204 6.11786,-2.89671 8.96034,-4.36376 1.43994,-0.74802 3.61854,-2.1702 4.40396,-4.1057"
           fill="#faa51d"
           stroke="#c48800"
           stroke-width="2.72453"
           id="path843" />
        <path
           d="m 182.42972,191.03319 c -3.69567,-1.11702 -11.43001,-4.10855 -12.53548,-8.56531 -0.70018,-2.82491 0.77982,-3.99028 2.69902,-4.33675 0.81136,-0.14659 2.25903,0.16627 4.26023,1.27171 2.78575,1.53856 4.15458,3.27667 7.73276,4.61501 3.28565,1.22903 -0.49675,-0.50377 -1.44058,3.47126 -0.83974,3.53577 2.7345,4.58697 -0.71595,3.54407 z"
           fill="#ffffff"
           stroke="none"
           stroke-width="0.0918146"
           id="path845" />
      </g>
      <g
         style="stroke-width:1.10793"
         transform="matrix(0.90430677,0,0,0.9008562,16.136991,15.23707)"
         id="g889">
        <g
           style="stroke-width:1.10792"
           fill-rule="nonzero"
           id="g853">
          <path
             d="m 310.2053,180.06419 c 0.0252,2.58028 -0.90746,5.80582 -3.47205,7.76398 -1.71733,1.31052 -4.49561,6.089 -8.01269,9.78514 -3.08737,3.24428 -8.26115,4.3184 -13.47458,2.75871 -17.23127,-5.1545 -14.51751,-38.31385 -0.002,-41.58436 5.42337,-1.22187 10.11758,0.0822 13.47481,3.78771 2.79281,3.08285 6.32948,8.61594 8.01348,9.86927 2.43367,1.81152 3.4427,4.55644 3.4726,7.61954 z"
             fill="#faa51d"
             stroke="#c48800"
             stroke-width="2.76937"
             id="path849" />
          <path
             d="m 309.44912,180.03723 c 0.0357,3.71925 -1.06263,4.87105 -3.09665,7.02623 -1.54464,1.15248 -3.65423,4.20432 -7.52506,8.42795 -3.1928,-4.51859 7.16534,-10.24719 7.16538,-15.45403 3e-5,-5.20677 -11.24178,-11.15804 -7.10093,-15.40079 4.04089,3.90677 5.50685,7.02323 7.26833,8.79959 1.94244,1.89138 3.24786,2.35145 3.28893,6.60105 z"
             fill="#ffffff"
             stroke="none"
             stroke-width="0.0762813"
             id="path851"
             sodipodi:nodetypes="cccsccc" />
        </g>
        <path
           d="m 307.38042,182.93473 c -0.6068,0 -2.16895,-1.44664 -2.16627,-2.61517 0.003,-1.14437 1.55947,-2.63159 2.16627,-2.63159 0.60681,0 1.42453,0.17805 1.47457,2.63159 0.0429,2.15491 -0.86776,2.61517 -1.47457,2.61517 z"
           fill="#5e4a42"
           fill-rule="evenodd"
           stroke="none"
           stroke-width="0.0852113"
           id="path855" />
        <g
           style="stroke-width:1.10793"
           id="g861">
          <path
             d="m 285.05286,198.9878 c -1.14657,3.61479 -14.64556,9.19625 -16.19807,6.69821 -1.55251,-2.49804 4.18358,-20.57026 6.88302,-21.68645"
             fill="#faa51d"
             fill-rule="nonzero"
             stroke="#c48800"
             stroke-width="2.88894"
             id="path857" />
          <path
             d="m 272.64002,202.17072 c 0.44161,-2.67022 2.02488,-9.27921 4.6256,-11.53911 2.34855,-2.04064 3.16025,3.53472 6.03196,7.94488 -2.16162,2.93019 -11.23842,7.11641 -10.65756,3.59422 z"
             fill="#ffffff"
             fill-rule="evenodd"
             stroke="none"
             stroke-width="0.155299"
             id="path859" />
        </g>
        <g
           style="stroke-width:1.10793"
           id="g867">
          <path
             d="m 275.73781,176.00992 c -2.69944,-1.11619 -8.43553,-19.18841 -6.88302,-21.68645 1.55251,-2.49804 15.0515,3.08342 16.19807,6.69821"
             fill="#faa51d"
             fill-rule="nonzero"
             stroke="#c48800"
             stroke-width="2.88894"
             id="path863" />
          <path
             d="m 283.29758,161.43279 c -2.87171,4.41017 -3.68341,9.98552 -6.03196,7.94488 -2.60072,-2.2599 -4.18399,-8.86889 -4.6256,-11.53911 -0.58086,-3.52219 8.49594,0.66403 10.65756,3.59423 z"
             fill="#ffffff"
             fill-rule="evenodd"
             stroke="none"
             stroke-width="0.155299"
             id="path865" />
        </g>
        <path
           d="m 312.24529,190.75061 c -1.36513,-0.80412 -3.20713,-2.53672 -4.30111,-4.02341"
           fill="none"
           fill-rule="evenodd"
           stroke="#000000"
           stroke-width="1.36743"
           id="path869" />
        <path
           d="m 310.3328,193.53618 c -1.38383,-0.89389 -3.45024,-3.78498 -4.22631,-5.82146"
           fill="none"
           fill-rule="evenodd"
           stroke="#000000"
           stroke-width="1.36743"
           id="path871" />
        <path
           d="m 307.94418,173.98929 c 1.09398,-1.48669 2.93598,-3.21929 4.30111,-4.02341"
           fill="none"
           fill-rule="evenodd"
           stroke="#000000"
           stroke-width="1.36743"
           id="path873" />
        <path
           d="m 306.10649,173.00177 c 0.77607,-2.03648 2.84248,-4.92758 4.22631,-5.82147"
           fill="none"
           fill-rule="evenodd"
           stroke="#000000"
           stroke-width="1.36743"
           id="path875" />
        <g
           style="stroke-width:1.10792"
           fill-rule="evenodd"
           id="g881">
          <path
             d="m 300.59193,190.34949 c -1.24973,1.60082 -3.35451,2.04626 -4.70117,0.99495 -1.34666,-1.05131 -1.42525,-3.20129 -0.17553,-4.80211 1.24973,-1.60082 3.35451,-2.04626 4.70118,-0.99495 1.34666,1.05131 1.42525,3.20129 0.17552,4.80211 z"
             fill="#ffffff"
             stroke="#faa51d"
             stroke-width="0.222615"
             id="path877" />
          <path
             d="m 300.32878,189.93995 c -0.98113,1.25677 -2.63357,1.60648 -3.69081,0.78111 -1.05725,-0.82537 -1.11894,-2.51328 -0.13781,-3.77005 0.98113,-1.25677 2.63357,-1.60648 3.69081,-0.78111 1.05725,0.82537 1.11894,2.51328 0.13781,3.77005 z"
             fill="#000000"
             stroke="none"
             stroke-width="0.16968"
             id="path879" />
        </g>
        <g
           style="stroke-width:1.10792"
           fill-rule="evenodd"
           id="g887">
          <path
             d="m 300.4164,175.18194 c -1.34666,1.05131 -3.45145,0.60586 -4.70118,-0.99495 -1.24973,-1.60082 -1.17114,-3.7508 0.17553,-4.80211 1.34666,-1.05131 3.45145,-0.60586 4.70117,0.99495 1.24973,1.60082 1.17114,3.7508 -0.17552,4.80211 z"
             fill="#ffffff"
             stroke="#faa51d"
             stroke-width="0.222615"
             id="path883" />
          <path
             d="m 300.19097,174.55943 c -1.05725,0.82537 -2.70968,0.47565 -3.69081,-0.78111 -0.98113,-1.25677 -0.91944,-2.94467 0.1378,-3.77004 1.05725,-0.82537 2.70968,-0.47565 3.69081,0.78111 0.98113,1.25677 0.91944,2.94467 -0.13781,3.77004 z"
             fill="#000000"
             stroke="none"
             stroke-width="0.16968"
             id="path885" />
        </g>
      </g>
    </g>
  </g>
</svg>
