<?xml version="1.0" encoding="UTF-8" standalone="no"?>
<svg
   xmlns:dc="http://purl.org/dc/elements/1.1/"
   xmlns:cc="http://creativecommons.org/ns#"
   xmlns:rdf="http://www.w3.org/1999/02/22-rdf-syntax-ns#"
   xmlns:svg="http://www.w3.org/2000/svg"
   xmlns="http://www.w3.org/2000/svg"
   xmlns:sodipodi="http://sodipodi.sourceforge.net/DTD/sodipodi-0.dtd"
   xmlns:inkscape="http://www.inkscape.org/namespaces/inkscape"
   version="1.1"
   width="131.71848"
   height="49.999924"
   viewBox="0 0 131.71848 49.999923"
   id="svg930"
   sodipodi:docname="cat-top-2-b.svg"
   inkscape:version="1.0 (4035a4f, 2020-05-01)">
  <metadata
     id="metadata936">
    <rdf:RDF>
      <cc:Work
         rdf:about="">
        <dc:format>image/svg+xml</dc:format>
        <dc:type
           rdf:resource="http://purl.org/dc/dcmitype/StillImage" />
        <dc:title></dc:title>
      </cc:Work>
    </rdf:RDF>
  </metadata>
  <defs
     id="defs934" />
  <sodipodi:namedview
     fit-margin-bottom="0"
     fit-margin-right="0"
     fit-margin-left="0"
     fit-margin-top="0"
     inkscape:document-rotation="0"
     pagecolor="#ffffff"
     bordercolor="#666666"
     borderopacity="1"
     objecttolerance="10"
     gridtolerance="10"
     guidetolerance="10"
     inkscape:pageopacity="0"
     inkscape:pageshadow="2"
     inkscape:window-width="1722"
     inkscape:window-height="916"
     id="namedview932"
     showgrid="false"
     inkscape:zoom="1.1734996"
     inkscape:cx="-140.4268"
     inkscape:cy="48.904992"
     inkscape:window-x="41"
     inkscape:window-y="147"
     inkscape:window-maximized="0"
     inkscape:current-layer="g926" />
  <g
     transform="translate(-167.40244,-152.39548)"
     id="g928">
    <g
       data-paper-data="{&quot;isPaintingLayer&quot;:true}"
       stroke-linecap="round"
       stroke-linejoin="round"
       stroke-miterlimit="1.5"
       stroke-dasharray="none"
       stroke-dashoffset="0"
       style="mix-blend-mode:normal"
       id="g926">
      <path
         d="m 234.36309,197.27309 c -2.18152,-0.5534 -2.13923,0.42791 -3.6105,1.2197 -2.40981,1.29211 -5.68208,1.60799 -8.34557,1.31739 -5.99494,-0.65702 -10.45945,-2.64237 -12.54795,-8.2236 -3.06175,-8.1958 7.4831,-17.83955 15.4651,-14.93775 8.13418,2.95403 2.99323,5.62588 17.43523,12.41836 2.78186,1.30729 8.92055,3.49565 10.40871,6.97614 0.97239,2.26416 -0.76099,5.24514 -3.5513,4.9537 -2.12233,-0.22071 -2.88333,-0.33693 -4.95493,-0.8558 -3.4583,-0.86675 -6.8405,-1.9921 -10.2988,-2.86812 z"
         fill="#faa51d"
         fill-rule="evenodd"
         stroke="#c48800"
         stroke-width="2.45912"
         id="path868" />
      <path
         d="m 250.85275,154.82933 c 2.07159,-0.51887 2.83258,-0.63511 4.95492,-0.85579 2.7903,-0.29145 4.52369,2.68955 3.5513,4.9537 -1.48818,3.48047 -7.62686,5.66883 -10.40872,6.97612 -14.44199,6.7925 -9.30105,9.46434 -17.43523,12.41837 -7.982,2.90181 -18.52684,-6.74196 -15.46511,-14.93776 2.08851,-5.58122 6.55301,-7.5666 12.54796,-8.2236 2.6635,-0.29061 5.93575,0.0252 8.34557,1.3174 1.47128,0.79179 1.42898,1.77308 3.61052,1.21968 3.45829,-0.876 6.84049,-2.00136 10.2988,-2.86811 z"
         fill="#faa51d"
         fill-rule="evenodd"
         stroke="#c48800"
         stroke-width="2.45912"
         id="path870" />
      <path
         d="m 268.91675,183.8499 c 0.92167,0.74882 2.44364,2.79314 3.47522,3.36676 1.23451,0.67975 5.55525,0.8499 6.83203,1.10512 5.20859,1.03774 7.31402,1.81436 11.94763,4.40198 2.51974,1.40752 4.67589,4.06674 2.71421,6.60045 -0.54961,0.70333 -1.52199,1.81267 -3.97408,0.91223 -3.87263,-1.42689 -5.25086,-2.80579 -9.26723,-3.89407 -3.39911,-0.92064 -7.16181,1.50776 -10.30726,1.99885 -5.28468,0.82294 -10.73001,-2.16562 -13.67253,-6.42355 -1.84331,-2.66848 -1.33597,-6.92221 1.14994,-9.0373 4.09246,-3.49479 7.66915,-1.82953 11.10207,0.96952 z"
         fill="#faa51d"
         fill-rule="evenodd"
         stroke="#c48800"
         stroke-width="2.45912"
         id="path872" />
      <path
         d="m 251.62384,171.37996 c -2.48591,-2.11508 -2.99324,-6.3688 -1.14995,-9.03728 2.94253,-4.25795 8.38786,-7.24652 13.67254,-6.42357 3.14546,0.49108 6.90816,2.91951 10.30725,1.99884 4.01637,-1.08828 5.39463,-2.46716 9.26723,-3.89405 2.4521,-0.90044 3.42448,0.20889 3.97409,0.91224 1.96167,2.53371 -0.19448,5.19291 -2.71421,6.60044 -4.63362,2.58763 -6.73904,3.36423 -11.94763,4.40197 -1.27678,0.25523 -5.59752,0.42539 -6.83204,1.10514 -1.03158,0.57362 -2.55355,2.61793 -3.47521,3.36676 -3.43292,2.79903 -7.00961,4.4643 -11.10207,0.96951 z"
         fill="#faa51d"
         fill-rule="evenodd"
         stroke="#c48800"
         stroke-width="2.45912"
         id="path874" />
      <path
         d="m 270.9549,169.87238 c 1.91939,4.15434 1.48816,9.47445 0.40585,12.22548 -1.73337,4.38933 -9.41096,7.27514 -13.52034,9.19142 -4.27003,1.99548 -10.18888,5.80531 -17.08856,5.41699 -8.15109,-0.45824 -14.56883,-3.53186 -18.54291,-6.45389 -4.084,-3.00792 -9.67308,-4.19982 -9.69845,-12.83193 -0.008,-7.4394 4.86191,-9.33548 9.14884,-12.10755 5.38615,-3.48806 9.95213,-6.13632 17.39296,-6.44629 8.47241,-0.35211 15.35519,2.9675 20.39466,4.73216 3.33146,1.16662 9.68154,2.3307 11.50794,6.27362 z"
         fill="#faa51d"
         fill-rule="evenodd"
         stroke="#c48800"
         stroke-width="2.50587"
         id="path876" />
      <g
         style="stroke-width:1.10794"
         transform="matrix(0.90430745,0,0,0.90085638,16.136878,15.237033)"
         fill-rule="evenodd"
         id="g882">
        <path
           d="m 220.65993,187.50426 c -0.78542,-1.9355 -2.96402,-3.35768 -4.40396,-4.1057 -2.84248,-1.46705 -5.44371,-2.74336 -8.96034,-4.36376 -2.67417,-1.23143 -8.99681,-4.91262 -18.05252,-3.54001 -4.55824,0.69099 -7.84112,2.91822 -10.52558,4.76115 -3.1473,2.16178 -6.13095,3.02199 -7.84859,1.86537 -1.37261,-0.9238 -2.14776,-2.6003 -2.22723,-4.17488 -0.0533,-1.0491 0.0692,-2.00095 1.92802,-3.93552 1.57178,-1.63723 4.67326,-3.48764 6.07673,-4.25156 6.18893,-3.36796 15.08102,-4.58817 18.75286,-4.47129 3.9243,0.12436 7.91685,1.02759 12.016,2.57038 3.69896,1.39225 7.19502,3.33991 10.00009,4.25811 2.28146,0.74802 3.13234,1.48949 4.33852,0.48528"
           fill="#faa51d"
           stroke="#c48800"
           stroke-width="2.72453"
           id="path878" />
        <path
           d="m 182.42972,168.59748 c 3.45045,-1.0429 -0.12379,0.008 0.71595,3.54407 0.94383,3.97503 4.72623,2.24223 1.44058,3.47126 -3.57818,1.33834 -4.94701,3.07645 -7.73276,4.61501 -2.0012,1.10544 -3.44887,1.4183 -4.26023,1.27171 -1.9192,-0.34647 -3.3992,-1.51184 -2.69902,-4.33675 1.10547,-4.45676 8.83981,-7.44829 12.53548,-8.56531 z"
           fill="#ffffff"
           stroke="none"
           stroke-width="0.0918145"
           id="path880" />
      </g>
      <g
         id="g889"
         style="mix-blend-mode:normal;stroke-width:1.10794"
         transform="matrix(0.90430745,0,0,0.90085638,16.136878,15.237024)">
        <g
           style="stroke-width:1.22761"
           fill-rule="nonzero"
           id="g853">
          <path
             d="m 310.2053,180.06419 c 0.0252,2.58028 -0.90746,5.80582 -3.47205,7.76398 -1.71733,1.31052 -4.49561,6.089 -8.01269,9.78514 -3.08737,3.24428 -8.26115,4.3184 -13.47458,2.75871 -17.23127,-5.1545 -14.51751,-38.31385 -0.002,-41.58436 5.42337,-1.22187 10.11758,0.0822 13.47481,3.78771 2.79281,3.08285 6.32948,8.61594 8.01348,9.86927 2.43367,1.81152 3.4427,4.55644 3.4726,7.61954 z"
             fill="#faa51d"
             stroke="#c48800"
             stroke-width="2.76934"
             id="path849" />
          <path
             d="m 309.44912,180.03723 c 0.0357,3.71925 -1.06263,4.87105 -3.09665,7.02623 -1.54464,1.15248 -3.65423,4.20432 -7.52506,8.42795 -3.1928,-4.51859 7.16534,-10.24719 7.16538,-15.45403 3e-5,-5.20677 -11.24178,-11.15804 -7.10093,-15.40079 4.04089,3.90677 5.50685,7.02323 7.26833,8.79959 1.94244,1.89138 3.24786,2.35145 3.28893,6.60105 z"
             fill="#ffffff"
             stroke="none"
             stroke-width="0.0762813"
             id="path851"
             sodipodi:nodetypes="cccsccc" />
        </g>
        <path
           d="m 307.38042,182.93473 c -0.6068,0 -2.16895,-1.44664 -2.16627,-2.61517 0.003,-1.14437 1.55947,-2.63159 2.16627,-2.63159 0.60681,0 1.42453,0.17805 1.47457,2.63159 0.0429,2.15491 -0.86776,2.61517 -1.47457,2.61517 z"
           fill="#5e4a42"
           fill-rule="evenodd"
           stroke="none"
           stroke-width="0.0852112"
           id="path855" />
        <g
           style="stroke-width:1.10794"
           id="g861">
          <path
             d="m 285.05286,198.9878 c -1.14657,3.61479 -14.64556,9.19625 -16.19807,6.69821 -1.55251,-2.49804 4.18358,-20.57026 6.88302,-21.68645"
             fill="#faa51d"
             fill-rule="nonzero"
             stroke="#c48800"
             stroke-width="2.88893"
             id="path857" />
          <path
             d="m 272.64002,202.17072 c 0.44161,-2.67022 2.02488,-9.27921 4.6256,-11.53911 2.34855,-2.04064 3.16025,3.53472 6.03196,7.94488 -2.16162,2.93019 -11.23842,7.11641 -10.65756,3.59422 z"
             fill="#ffffff"
             fill-rule="evenodd"
             stroke="none"
             stroke-width="0.155299"
             id="path859" />
        </g>
        <g
           style="stroke-width:1.10794"
           id="g867">
          <path
             d="m 275.73781,176.00992 c -2.69944,-1.11619 -8.43553,-19.18841 -6.88302,-21.68645 1.55251,-2.49804 15.0515,3.08342 16.19807,6.69821"
             fill="#faa51d"
             fill-rule="nonzero"
             stroke="#c48800"
             stroke-width="2.88893"
             id="path863" />
          <path
             d="m 283.29758,161.43279 c -2.87171,4.41017 -3.68341,9.98552 -6.03196,7.94488 -2.60072,-2.2599 -4.18399,-8.86889 -4.6256,-11.53911 -0.58086,-3.52219 8.49594,0.66403 10.65756,3.59423 z"
             fill="#ffffff"
             fill-rule="evenodd"
             stroke="none"
             stroke-width="0.155299"
             id="path865" />
        </g>
        <path
           d="m 312.24529,190.75061 c -1.36513,-0.80412 -3.20713,-2.53672 -4.30111,-4.02341"
           fill="none"
           fill-rule="evenodd"
           stroke="#000000"
           stroke-width="1.36745"
           id="path869" />
        <path
           d="m 310.3328,193.53618 c -1.38383,-0.89389 -3.45024,-3.78498 -4.22631,-5.82146"
           fill="none"
           fill-rule="evenodd"
           stroke="#000000"
           stroke-width="1.36745"
           id="path871" />
        <path
           d="m 307.94418,173.98929 c 1.09398,-1.48669 2.93598,-3.21929 4.30111,-4.02341"
           fill="none"
           fill-rule="evenodd"
           stroke="#000000"
           stroke-width="1.36745"
           id="path873" />
        <path
           d="m 306.10649,173.00177 c 0.77607,-2.03648 2.84248,-4.92758 4.22631,-5.82147"
           fill="none"
           fill-rule="evenodd"
           stroke="#000000"
           stroke-width="1.36745"
           id="path875" />
        <g
           style="stroke-width:1.22761"
           fill-rule="evenodd"
           id="g881">
          <path
             d="m 300.59193,190.34949 c -1.24973,1.60082 -3.35451,2.04626 -4.70117,0.99495 -1.34666,-1.05131 -1.42525,-3.20129 -0.17553,-4.80211 1.24973,-1.60082 3.35451,-2.04626 4.70118,-0.99495 1.34666,1.05131 1.42525,3.20129 0.17552,4.80211 z"
             fill="#ffffff"
             stroke="#faa51d"
             stroke-width="0.222618"
             id="path877" />
          <path
             d="m 300.32878,189.93995 c -0.98113,1.25677 -2.63357,1.60648 -3.69081,0.78111 -1.05725,-0.82537 -1.11894,-2.51328 -0.13781,-3.77005 0.98113,-1.25677 2.63357,-1.60648 3.69081,-0.78111 1.05725,0.82537 1.11894,2.51328 0.13781,3.77005 z"
             fill="#000000"
             stroke="none"
             stroke-width="0.169681"
             id="path879" />
        </g>
        <g
           style="stroke-width:1.22761"
           fill-rule="evenodd"
           id="g887">
          <path
             d="m 300.4164,175.18194 c -1.34666,1.05131 -3.45145,0.60586 -4.70118,-0.99495 -1.24973,-1.60082 -1.17114,-3.7508 0.17553,-4.80211 1.34666,-1.05131 3.45145,-0.60586 4.70117,0.99495 1.24973,1.60082 1.17114,3.7508 -0.17552,4.80211 z"
             fill="#ffffff"
             stroke="#faa51d"
             stroke-width="0.222618"
             id="path883" />
          <path
             d="m 300.19097,174.55943 c -1.05725,0.82537 -2.70968,0.47565 -3.69081,-0.78111 -0.98113,-1.25677 -0.91944,-2.94467 0.1378,-3.77004 1.05725,-0.82537 2.70968,-0.47565 3.69081,0.78111 0.98113,1.25677 0.91944,2.94467 -0.13781,3.77004 z"
             fill="#000000"
             stroke="none"
             stroke-width="0.169681"
             id="path885" />
        </g>
      </g>
    </g>
  </g>
</svg>
